<svg width="512" height="511" viewBox="0 0 512 511" fill="none" xmlns="http://www.w3.org/2000/svg">
<path d="M509.989 193.08C508.35 187.805 505.261 183.148 501.106 179.688C496.951 176.228 491.913 174.116 486.618 173.616L339.013 159.641L280.679 17.216C276.371 6.75206 266.572 0 255.664 0C244.756 0 234.953 6.75206 230.674 17.216L172.34 159.641L24.7117 173.616C13.8888 174.658 4.72472 182.302 1.33913 193.08C-0.31059 198.359 -0.438915 204.028 0.970047 209.383C2.37901 214.738 5.26335 219.544 9.26582 223.206L120.844 325.236L87.9455 476.344C85.5386 487.455 89.6732 498.945 98.5137 505.608C103.144 509.122 108.724 511.012 114.45 511.008C119.358 511.008 124.175 509.619 128.385 506.987L255.664 427.622L382.921 506.987C387.486 509.836 392.752 511.224 398.067 510.978C403.381 510.733 408.51 508.866 412.816 505.608C421.655 498.945 425.791 487.455 423.384 476.344L390.485 325.237L502.063 223.207C506.066 219.545 508.95 214.739 510.359 209.384C511.768 204.029 511.64 198.36 509.989 193.081V193.08Z" fill="black"/>
</svg>
