<svg width="510" height="406" viewBox="0 0 510 406" fill="none" xmlns="http://www.w3.org/2000/svg">
<path d="M504.273 189.416L386.454 64.5918C379.212 56.9117 367.125 56.5614 359.445 63.8087C351.777 71.05 351.42 83.1433 358.668 90.8175L464.113 202.523L358.668 314.241C351.42 321.915 351.777 334.002 359.445 341.249C362.988 344.6 367.681 346.464 372.558 346.459C375.16 346.462 377.735 345.933 380.124 344.905C382.514 343.876 384.668 342.37 386.455 340.478L504.273 215.648C511.22 208.28 511.22 196.778 504.273 189.416ZM150.822 314.235L45.3837 202.523L150.822 90.8115C158.063 83.1374 157.713 71.043 150.039 63.8027C142.37 56.5614 130.27 56.9117 123.03 64.5859L5.2108 189.41C-1.73693 196.772 -1.73693 208.28 5.2108 215.643L123.036 340.473C126.793 344.454 131.856 346.46 136.932 346.46C141.632 346.46 146.352 344.727 150.039 341.243C157.72 334.002 158.063 321.909 150.822 314.235ZM285.652 0.218303C275.226 -1.36091 265.469 5.79679 263.877 16.2224L207.833 383.053C206.241 393.485 213.406 403.236 223.838 404.828C224.819 404.974 225.786 405.045 226.748 405.045C236.027 405.045 244.166 398.275 245.612 388.824L301.656 21.9929C303.248 11.5604 296.083 1.81045 285.652 0.218303Z" fill="black"/>
</svg>
