<svg width="512" height="512" viewBox="0 0 512 512" fill="none" xmlns="http://www.w3.org/2000/svg">
<mask id="mask0_45_62" style="mask-type:luminance" maskUnits="userSpaceOnUse" x="0" y="0" width="512" height="512">
<path d="M500.499 500.499V11.5H11.5V500.499H500.499Z" fill="white" stroke="white" stroke-width="23"/>
</mask>
<g mask="url(#mask0_45_62)">
<path d="M63.6669 474.333H15V283.106H63.6669C79.1308 283.106 91.6668 295.642 91.6668 311.106V446.333C91.6668 461.797 79.1308 474.333 63.6669 474.333Z" stroke="black" stroke-width="30" stroke-miterlimit="10"/>
<path d="M95.0186 330.934C111.593 311.655 136.145 299.434 163.564 299.434C190.984 299.434 215.536 311.655 232.111 330.934H320.601C339.241 330.934 354.351 346.044 354.351 364.684C354.351 383.324 339.241 398.434 320.601 398.434H235.018" stroke="black" stroke-width="30" stroke-miterlimit="10"/>
<path d="M95.0186 447.11L175.559 474.332H354.351L486.669 346.723C500.267 333.61 500.465 311.894 487.11 298.535C474.368 285.788 453.861 285.293 440.519 297.41L349.682 379.907" stroke="black" stroke-width="30" stroke-miterlimit="10"/>
<path d="M415.433 150.244C415.436 143.834 414.789 137.441 413.502 131.163L430.685 114.983L406.405 72.9279L383.775 79.7259C374.183 71.1785 362.945 64.6819 350.752 60.6349L345.331 37.667H296.77L291.349 60.6349C279.156 64.6824 267.919 71.179 258.327 79.7259L235.697 72.9279L211.415 114.983L228.598 131.163C227.311 137.441 226.665 143.834 226.668 150.244C226.665 156.653 227.311 163.046 228.598 169.325L211.415 185.505L235.697 227.559L258.327 220.761C267.919 229.308 279.156 235.805 291.349 239.852L296.77 262.82H345.331L350.752 239.852C362.945 235.805 374.183 229.309 383.775 220.761L406.405 227.559L430.685 185.505L413.502 169.325C414.789 163.046 415.436 156.653 415.433 150.244Z" stroke="black" stroke-width="30" stroke-miterlimit="10"/>
<path d="M355.712 150.244C355.712 169.387 340.193 184.904 321.052 184.904C301.91 184.904 286.392 169.387 286.392 150.244C286.392 131.101 301.91 115.584 321.052 115.584C340.193 115.584 355.712 131.101 355.712 150.244Z" stroke="black" stroke-width="30" stroke-miterlimit="10"/>
</g>
</svg>
