<svg width="431" height="512" viewBox="0 0 431 512" fill="none" xmlns="http://www.w3.org/2000/svg">
<path d="M59.9884 404H60H371C388.655 404 403 389.655 403 372V60C403 42.3446 388.655 28 371 28H60C42.3446 28 28 42.3446 28 60V395.427V412.407L44.0061 406.739C49.1383 404.921 54.5437 403.995 59.9884 404ZM155.215 156.58C157.79 143.981 164.371 132.375 174.132 123.637L174.132 123.637C187.099 112.027 204.596 106.44 222.143 108.389L222.144 108.389C250.09 111.49 272.621 134.012 275.669 161.737C278.376 186.37 264.136 204.664 250.892 217.968C247.501 221.374 244.363 224.369 241.491 227.109L241.458 227.14C235.324 232.99 230.399 237.711 227.406 242.322C226.142 244.269 225.234 246.155 224.584 248H208.025C209.107 242.66 210.98 238.385 213.314 234.617C217.329 228.134 222.929 222.701 230.417 215.56C230.417 215.56 230.417 215.56 230.417 215.56L230.48 215.5C233.28 212.829 236.292 209.957 239.553 206.68C253.208 192.962 261.526 179.501 259.766 163.485L259.766 163.484C257.505 142.928 240.923 126.571 220.381 124.291L220.376 124.291C207.319 122.847 194.58 126.807 184.804 135.56C178.387 141.303 173.881 148.553 171.635 156.58H155.215ZM371 420H60C42.3446 420 28 434.345 28 452C28 469.655 42.3446 484 60 484H371C385.669 484 399.693 481.162 412.548 476.01C404.232 490.338 388.717 500 371 500H60C33.5434 500 12 478.457 12 452V60C12 33.5434 33.5434 12 60 12H371C397.457 12 419 33.5434 419 60V372C419 398.457 397.457 420 371 420ZM207 302H223V318H207V302Z" stroke="black" stroke-width="24"/>
</svg>
