<svg width="515" height="511" viewBox="0 0 515 511" fill="none" xmlns="http://www.w3.org/2000/svg">
<path d="M244.138 300.739C244.138 356.315 289.242 401.419 344.818 401.419C400.393 401.419 445.498 356.315 445.498 300.739C445.498 245.163 400.393 200.059 344.818 200.059C289.242 200.059 244.138 245.163 244.138 300.739ZM261.167 300.739C261.167 254.532 298.61 217.088 344.818 217.088C391.025 217.088 428.469 254.532 428.469 300.739C428.469 346.946 391.025 384.39 344.818 384.39C298.61 384.39 261.167 346.946 261.167 300.739Z" fill="black" stroke="black"/>
<path d="M313.017 251.478L313.025 251.474L313.032 251.469C326.552 242.721 342.448 239.546 357.538 242.723C372.633 245.901 385.347 254.639 394.093 267.359C395.755 269.85 398.295 271.586 400.919 271.586C402.64 271.586 404.333 270.739 405.89 269.96L405.951 269.93L405.968 269.921L405.985 269.911C410.266 267.343 411.083 262.21 408.56 258.005L408.554 257.995L408.548 257.985C397.255 241.046 380.311 229.749 360.949 225.715L360.945 225.715C340.782 221.682 320.615 225.714 303.677 237.003C299.404 239.574 298.59 244.701 301.111 248.903C303.68 253.184 308.813 254.001 313.017 251.478ZM436.552 495.742L436.56 495.755L436.567 495.766C441.435 503.068 448.735 507.949 456.857 509.591C457.729 510.012 458.78 510.213 459.879 510.313C461.004 510.415 462.225 510.415 463.418 510.415H463.431C469.127 510.415 475.602 508.79 482.04 506.376L482.094 506.356L482.142 506.324C489.467 501.44 494.353 494.109 495.981 485.16L495.985 485.138L495.987 485.116C496.796 476.213 495.181 467.259 489.472 459.919L489.467 459.912L413.351 365.368C412.05 363.224 409.898 362.164 407.678 361.952C405.466 361.741 403.146 362.367 401.441 363.637C399.291 364.938 398.228 367.092 398.017 369.315C397.805 371.536 398.436 373.865 399.717 375.573L399.722 375.58L399.728 375.587L475.865 470.157L475.881 470.178L475.901 470.197C478.958 473.254 479.748 477.876 478.97 481.767C478.199 485.618 475.89 488.72 472.769 491.067C468.859 493.406 464.985 494.168 461.125 493.396C457.274 492.626 454.173 490.317 451.826 487.197L390.13 382.233L390.127 382.229C387.604 378.023 382.502 376.283 378.221 378.851C374.016 381.374 372.276 386.475 374.842 390.755C374.843 390.756 374.843 390.757 374.844 390.758L436.552 495.742Z" fill="black" stroke="black"/>
<path d="M436.984 315.665H483.468C485.986 315.665 488.123 314.823 489.632 313.314C491.141 311.806 491.982 309.668 491.982 307.15V38.6677C491.982 18.3556 474.127 0.5 453.815 0.5H61.1086C39.995 0.5 22.9409 17.5541 22.9409 38.6677V306.349C22.9409 308.867 23.7824 311.004 25.2913 312.513C26.8002 314.022 28.9374 314.863 31.4553 314.863H252.653C255.171 314.863 257.308 314.022 258.817 312.513C260.326 311.004 261.167 308.867 261.167 306.349C261.167 303.831 260.326 301.694 258.817 300.185C257.308 298.676 255.171 297.835 252.653 297.835H39.9697V38.6677C39.9697 26.9223 49.3632 17.5288 61.1086 17.5288H453.815C459.271 17.5288 464.558 20.0644 468.488 23.9943C472.418 27.9241 474.954 33.2118 474.954 38.6677V298.636H436.984C434.467 298.636 432.329 299.478 430.82 300.986C429.312 302.495 428.47 304.633 428.47 307.15C428.47 309.668 429.312 311.806 430.82 313.314C432.329 314.823 434.467 315.665 436.984 315.665Z" fill="black" stroke="black"/>
<path d="M44.2778 375.773H281.504C284.022 375.773 286.159 374.931 287.668 373.423C289.177 371.914 290.019 369.777 290.019 367.259C290.019 364.741 289.177 362.603 287.668 361.095C286.159 359.586 284.022 358.744 281.504 358.744H44.2778C30.128 358.744 17.5288 346.145 17.5288 331.995V314.863H252.652C255.17 314.863 257.308 314.022 258.816 312.513C260.325 311.004 261.167 308.867 261.167 306.349C261.167 303.831 260.325 301.694 258.816 300.185C257.308 298.676 255.17 297.835 252.652 297.835H9.01441C6.49646 297.835 4.35932 298.676 2.85041 300.185C1.3415 301.694 0.5 303.831 0.5 306.349V331.995C0.5 356.315 19.9584 375.773 44.2778 375.773ZM408.933 375.773H470.644C494.964 375.773 514.422 356.315 514.422 331.995V306.349C514.422 303.831 513.581 301.694 512.072 300.185C510.563 298.676 508.426 297.835 505.908 297.835H436.984C434.466 297.835 432.329 298.676 430.82 300.185C429.311 301.694 428.47 303.831 428.47 306.349C428.47 308.867 429.311 311.004 430.82 312.513C432.329 314.022 434.466 314.863 436.984 314.863H497.393V331.995C497.393 346.145 484.794 358.744 470.644 358.744H408.933C406.416 358.744 404.278 359.586 402.769 361.095C401.261 362.603 400.419 364.741 400.419 367.259C400.419 369.777 401.261 371.914 402.769 373.423C404.278 374.931 406.416 375.773 408.933 375.773ZM243.035 42.3735H271.887C274.405 42.3735 276.542 41.532 278.051 40.0231C279.56 38.5142 280.401 36.3771 280.401 33.8591C280.401 31.3412 279.56 29.204 278.051 27.6951C276.542 26.1862 274.405 25.3447 271.887 25.3447H243.035C240.517 25.3447 238.38 26.1862 236.871 27.6951C235.362 29.204 234.521 31.3412 234.521 33.8591C234.521 36.3771 235.362 38.5142 236.871 40.0231C238.38 41.532 240.517 42.3735 243.035 42.3735ZM100.379 177.817H129.231C131.749 177.817 133.886 176.976 135.395 175.467C136.903 173.958 137.745 171.821 137.745 169.303V74.7326C137.745 72.2147 136.903 70.0775 135.395 68.5686C133.886 67.0597 131.749 66.2182 129.231 66.2182H100.379C97.8607 66.2182 95.7236 67.0597 94.2147 68.5686C92.7058 70.0775 91.8643 72.2147 91.8643 74.7326V169.303C91.8643 171.821 92.7058 173.958 94.2147 175.467C95.7236 176.976 97.8607 177.817 100.379 177.817ZM120.716 83.247V160.788H108.893V83.247H120.716ZM225.403 177.016H254.255C256.773 177.016 258.91 176.174 260.419 174.665C261.928 173.156 262.77 171.019 262.77 168.501V137.245C262.77 134.727 261.928 132.59 260.419 131.081C258.91 129.572 256.773 128.731 254.255 128.731H225.403C222.886 128.731 220.748 129.572 219.239 131.081C217.731 132.59 216.889 134.727 216.889 137.245V168.501C216.889 171.019 217.731 173.156 219.239 174.665C220.748 176.174 222.886 177.016 225.403 177.016ZM245.741 145.759V159.987H233.918V145.759H245.741ZM162.891 177.016H191.743C194.261 177.016 196.398 176.174 197.907 174.665C199.416 173.156 200.257 171.019 200.257 168.501V108.393C200.257 105.875 199.416 103.738 197.907 102.229C196.398 100.72 194.261 99.8787 191.743 99.8787H162.891C160.373 99.8787 158.236 100.72 156.727 102.229C155.218 103.738 154.377 105.875 154.377 108.393V168.501C154.377 171.019 155.218 173.156 156.727 174.665C158.236 176.174 160.373 177.016 162.891 177.016ZM183.229 116.908V159.987H171.406V116.908H183.229ZM334.399 107.29H397.713C400.231 107.29 402.368 106.449 403.877 104.94C405.386 103.431 406.228 101.294 406.228 98.7759C406.228 96.2579 405.386 94.1208 403.877 92.6119C402.368 91.103 400.231 90.2615 397.713 90.2615H334.399C331.882 90.2615 329.744 91.103 328.235 92.6119C326.727 94.1208 325.885 96.2579 325.885 98.7759C325.885 101.294 326.727 103.431 328.235 104.94C329.744 106.449 331.882 107.29 334.399 107.29ZM312.761 139.348H424.962C427.48 139.348 429.617 138.506 431.126 136.998C432.635 135.489 433.477 133.351 433.477 130.834C433.477 128.316 432.635 126.178 431.126 124.67C429.617 123.161 427.48 122.319 424.962 122.319H312.761C310.243 122.319 308.105 123.161 306.597 124.67C305.088 126.178 304.246 128.316 304.246 130.834C304.246 133.351 305.088 135.489 306.597 136.998C308.105 138.506 310.243 139.348 312.761 139.348ZM97.9744 233.117H195.75C198.268 233.117 200.405 232.275 201.914 230.766C203.423 229.257 204.265 227.12 204.265 224.602C204.265 222.084 203.423 219.947 201.914 218.438C200.405 216.929 198.268 216.088 195.75 216.088H97.9744C95.4564 216.088 93.3193 216.929 91.8104 218.438C90.3015 219.947 89.46 222.084 89.46 224.602C89.46 227.12 90.3015 229.257 91.8104 230.766C93.3193 232.275 95.4564 233.117 97.9744 233.117ZM97.9744 265.174H195.75C198.268 265.174 200.405 264.333 201.914 262.824C203.423 261.315 204.265 259.178 204.265 256.66C204.265 254.142 203.423 252.005 201.914 250.496C200.405 248.987 198.268 248.145 195.75 248.145H97.9744C95.4564 248.145 93.3193 248.987 91.8104 250.496C90.3015 252.005 89.46 254.142 89.46 256.66C89.46 259.178 90.3015 261.315 91.8104 262.824C93.3193 264.333 95.4564 265.174 97.9744 265.174ZM312.761 169.803H424.962C427.48 169.803 429.617 168.961 431.126 167.452C432.635 165.943 433.477 163.806 433.477 161.288C433.477 158.77 432.635 156.633 431.126 155.124C429.617 153.615 427.48 152.774 424.962 152.774H312.761C310.243 152.774 308.105 153.615 306.597 155.124C305.088 156.633 304.246 158.77 304.246 161.288C304.246 163.806 305.088 165.943 306.597 167.452C308.105 168.961 310.243 169.803 312.761 169.803Z" fill="black" stroke="black"/>
</svg>
